<svg width="25" height="24" viewBox="0 0 25 24" fill="none" xmlns="http://www.w3.org/2000/svg">
<g clip-path="url(#clip0_2511_21785)">
<path d="M9.5 19.0004C4.5 20.5004 4.5 16.5004 2.5 16.0004M16.5 22.0004V18.1304C16.5375 17.6536 16.4731 17.1742 16.311 16.7242C16.1489 16.2742 15.8929 15.8638 15.56 15.5204C18.7 15.1704 22 13.9804 22 8.52043C21.9997 7.12425 21.4627 5.78162 20.5 4.77043C20.9559 3.54893 20.9236 2.19878 20.41 1.00043C20.41 1.00043 19.23 0.650426 16.5 2.48043C14.208 1.85925 11.792 1.85925 9.5 2.48043C6.77 0.650426 5.59 1.00043 5.59 1.00043C5.07638 2.19878 5.04414 3.54893 5.5 4.77043C4.53013 5.78913 3.99252 7.14389 4 8.55043C4 13.9704 7.3 15.1604 10.44 15.5504C10.111 15.8904 9.85726 16.2958 9.69531 16.7403C9.53335 17.1849 9.46681 17.6585 9.5 18.1304V22.0004" stroke="currentColor" stroke-width="2" stroke-linecap="round" stroke-linejoin="round"/>
</g>
<defs>
<clipPath id="clip0_2511_21785">
<rect width="24" height="24" fill="white" transform="translate(0.5)"/>
</clipPath>
</defs>
</svg>
