<svg width="25" height="24" viewBox="0 0 25 24" fill="none" xmlns="http://www.w3.org/2000/svg">
<path d="M17.5 2H7.5C4.73858 2 2.5 4.23858 2.5 7V17C2.5 19.7614 4.73858 22 7.5 22H17.5C20.2614 22 22.5 19.7614 22.5 17V7C22.5 4.23858 20.2614 2 17.5 2Z" stroke="currentColor" stroke-width="2" stroke-linecap="round" stroke-linejoin="round"/>
<path d="M16.4997 11.3703C16.6231 12.2025 16.481 13.0525 16.0935 13.7993C15.706 14.5461 15.0929 15.1517 14.3413 15.53C13.5898 15.9082 12.7382 16.0399 11.9075 15.9062C11.0768 15.7726 10.3095 15.3804 9.71455 14.7855C9.11962 14.1905 8.72744 13.4232 8.59377 12.5925C8.46011 11.7619 8.59177 10.9102 8.97003 10.1587C9.34829 9.40716 9.95389 8.79404 10.7007 8.40654C11.4475 8.01904 12.2975 7.87689 13.1297 8.0003C13.9786 8.12619 14.7646 8.52176 15.3714 9.12861C15.9782 9.73545 16.3738 10.5214 16.4997 11.3703Z" stroke="currentColor" stroke-width="2" stroke-linecap="round" stroke-linejoin="round"/>
<path d="M18 6.5H18.01" stroke="currentColor" stroke-width="2" stroke-linecap="round" stroke-linejoin="round"/>
</svg>
